<?xml version="1.0" encoding="UTF-8" standalone="no"?>
<svg
   xmlns:dc="http://purl.org/dc/elements/1.1/"
   xmlns:cc="http://creativecommons.org/ns#"
   xmlns:rdf="http://www.w3.org/1999/02/22-rdf-syntax-ns#"
   xmlns:svg="http://www.w3.org/2000/svg"
   xmlns="http://www.w3.org/2000/svg"
   xmlns:sodipodi="http://sodipodi.sourceforge.net/DTD/sodipodi-0.dtd"
   xmlns:inkscape="http://www.inkscape.org/namespaces/inkscape"
   title="aaa.svg (11KB)"
   id="outputsvg"
   style="display:inline"
   viewBox="0 0 3044.2308 1039.1795"
   preserveAspectRatio="xMidYMid meet"
   width="100"
   height="34"
   version="1.0"
   inkscape:version="0.91 r13725"
   sodipodi:docname="aaa.svg">
  <title
     id="title4496">Icfes Colombia logo</title>
  <metadata
     id="metadata55">
    <rdf:RDF>
      <cc:Work
         rdf:about="">
        <dc:format>image/svg+xml</dc:format>
        <dc:type
           rdf:resource="http://purl.org/dc/dcmitype/StillImage" />
        <dc:title>Icfes Colombia logo</dc:title>
        <cc:license
           rdf:resource="http://scripts.sil.org/OFL" />
      </cc:Work>
      <cc:License
         rdf:about="http://scripts.sil.org/OFL">
        <cc:permits
           rdf:resource="http://scripts.sil.org/pub/OFL/Reproduction" />
        <cc:permits
           rdf:resource="http://scripts.sil.org/pub/OFL/Distribution" />
        <cc:permits
           rdf:resource="http://scripts.sil.org/pub/OFL/Embedding" />
        <cc:permits
           rdf:resource="http://scripts.sil.org/pub/OFL/DerivativeWorks" />
        <cc:requires
           rdf:resource="http://scripts.sil.org/pub/OFL/Notice" />
        <cc:requires
           rdf:resource="http://scripts.sil.org/pub/OFL/Attribution" />
        <cc:requires
           rdf:resource="http://scripts.sil.org/pub/OFL/ShareAlike" />
        <cc:requires
           rdf:resource="http://scripts.sil.org/pub/OFL/DerivativeRenaming" />
        <cc:requires
           rdf:resource="http://scripts.sil.org/pub/OFL/BundlingWhenSelling" />
      </cc:License>
    </rdf:RDF>
  </metadata>
  <defs
     id="defs53" />
  <sodipodi:namedview
     pagecolor="#ffffff"
     bordercolor="#666666"
     borderopacity="1"
     objecttolerance="10"
     gridtolerance="10"
     guidetolerance="10"
     inkscape:pageopacity="0"
     inkscape:pageshadow="2"
     inkscape:window-width="1366"
     inkscape:window-height="705"
     id="namedview51"
     showgrid="false"
     inkscape:showpageshadow="false"
     inkscape:zoom="1"
     inkscape:cx="49.866257"
     inkscape:cy="19.332467"
     inkscape:window-x="-8"
     inkscape:window-y="-8"
     inkscape:window-maximized="1"
     inkscape:current-layer="outputsvg" />
  <g
     id="layer101"
     transform="matrix(0.19493061,0,0,0.18694479,-37.448384,-39.25101)"
     style="fill:#026ab0;stroke:none">
    <path
       d="m 10163,5519 c -78,-24 -139,-70 -178,-134 l -30,-48 0,-1847 0,-1847 30,-48 c 40,-65 101,-110 181,-135 65,-20 87,-20 1815,-20 l 1750,0 102,-88 c 322,-276 658,-520 1024,-746 161,-99 250,-139 373,-167 102,-22 148,-23 218,-5 68,19 96,37 112,75 40,97 -41,180 -264,270 -203,83 -439,280 -953,797 l -293,294 -2,1733 -3,1734 -30,48 c -40,65 -101,110 -181,135 -65,20 -86,20 -1838,19 -1732,0 -1772,-1 -1833,-20 z"
       id="path8"
       inkscape:connector-curvature="0" />
    <path
       d="m 4009,4245 c -64,-21 -141,-92 -169,-157 l -22,-52 3,-773 4,-772 -29,-7 c -37,-8 -102,-67 -129,-118 -31,-58 -31,-184 0,-241 30,-57 89,-110 154,-140 l 56,-25 7,-59 c 4,-32 18,-114 31,-182 126,-653 376,-1076 741,-1258 121,-60 216,-83 369,-88 156,-6 217,6 345,69 71,35 101,57 185,142 102,103 149,170 191,275 92,227 25,500 -141,577 -87,41 -157,28 -235,-42 -58,-53 -79,-99 -101,-230 -20,-119 -37,-160 -96,-232 -55,-67 -103,-95 -163,-93 -163,3 -310,175 -410,481 -40,119 -84,318 -96,429 l -7,64 39,-8 c 415,-78 770,89 782,370 3,86 -22,142 -86,188 -35,25 -55,32 -106,35 -82,5 -123,-9 -202,-70 -36,-27 -81,-56 -99,-64 -63,-26 -206,-13 -352,33 l -51,16 -8,166 c -4,91 -8,328 -8,526 -1,315 2,380 21,520 61,445 56,533 -36,638 -53,60 -129,90 -241,94 -65,2 -110,-2 -141,-12 z"
       id="path32"
       inkscape:connector-curvature="0" />
    <path
       d="m 7807,4135 c -255,-48 -454,-169 -528,-321 -27,-55 -32,-75 -32,-143 -1,-71 3,-87 32,-143 36,-70 75,-117 155,-182 77,-62 132,-81 241,-81 77,0 95,3 128,23 54,34 71,72 64,148 -3,34 -15,87 -26,118 -25,71 -25,71 117,62 357,-21 872,-181 1028,-319 55,-49 55,-72 -1,-104 -112,-64 -221,-76 -780,-88 -170,-3 -332,-8 -360,-10 -27,-2 -86,-7 -129,-11 -111,-9 -336,-67 -421,-109 -81,-41 -150,-103 -176,-160 -44,-95 -14,-246 74,-383 181,-280 786,-712 1255,-896 389,-152 677,-152 988,0 211,103 276,264 171,421 -42,62 -119,103 -208,110 -58,5 -78,0 -219,-48 -146,-51 -160,-54 -245,-53 -75,1 -108,8 -200,39 -202,67 -486,218 -688,363 -70,50 -234,208 -225,217 12,12 254,27 558,35 370,9 492,22 685,71 256,66 422,178 499,339 29,61 31,73 31,175 0,133 -21,200 -98,313 -183,268 -662,514 -1172,603 -160,27 -411,34 -518,14 z"
       id="path34"
       inkscape:connector-curvature="0" />
    <path
       d="m 5576,4129 c -127,-13 -244,-47 -356,-102 -90,-44 -116,-63 -195,-141 -136,-136 -191,-259 -202,-452 -10,-177 27,-335 124,-529 189,-376 697,-919 1123,-1200 178,-117 381,-209 555,-251 92,-22 312,-30 387,-15 140,29 276,137 338,266 94,197 17,467 -216,759 -375,468 -806,675 -1311,628 -71,-6 -150,-18 -177,-27 -26,-8 -52,-13 -56,-10 -11,7 -77,182 -105,278 -13,48 -28,123 -31,166 -6,75 -6,78 20,98 41,33 144,46 302,40 222,-8 405,-65 684,-210 299,-155 339,-174 399,-187 130,-27 248,7 305,88 43,61 48,149 14,224 -49,105 -156,200 -338,296 -414,221 -872,322 -1264,281 z m 512,-1553 c 179,-64 453,-273 602,-461 46,-58 115,-184 105,-193 -13,-13 -131,61 -261,165 -176,142 -436,364 -539,461 l -74,69 62,-13 c 34,-7 81,-20 105,-28 z"
       id="path36"
       inkscape:connector-curvature="0" />
    <path
       d="M 997,3954 C 801,3907 632,3749 515,3506 355,3171 324,2878 401,2420 c 80,-480 196,-732 379,-825 21,-11 66,-20 112,-23 130,-8 224,36 286,132 25,38 41.7496,120.5092 41.301,144.2124 -1.08,57.0633 -8.9381,82.5133 -14.301,106.7876 l -72,150 c -79,164 -103,240 -133,415 -31,180 -39,284 -35,430 4,119 9,153 44,280 55,203 73,240 133,271 32,17 33,16 73,-11 62,-42 122,-70 151,-70 21,0 25,-3 19,-17 -50,-121 -69,-338 -41,-485 42,-222 156,-462 347,-730 379,-530 776,-833 1196,-912 202,-38 321,-29 536,40 272,88 401,197 414,351 10,110 -33,181 -142,237 -145,75 -271,53 -445,-78 -95,-71 -143,-86 -230,-75 -89,12 -142,32 -234,84 -180,102 -360,288 -558,575 -232,338 -342,607 -316,776 11,72 31,102 88,132 39,19 59,22 165,22 404,0 888,-234 1170,-567 33,-39 77,-82 98,-96 107,-71 254,-27 336,102 26,40 33,61 33,104 1,68 -24,118 -104,203 -98,104 -449,383 -677,537 -123,83 -402,197 -567,232 -118,25 -393,26 -499,1 -124,-29 -231,-73 -304,-126 -23,-17 -43,-30 -45,-30 -2,0 -8,14 -11,32 -17,78 -168,185 -313,222 -73,19 -206,19 -285,0 z"
       id="path38"
       inkscape:connector-curvature="0"
       sodipodi:nodetypes="ccccccscccccccscccccccccccccscccccccccsccc" />
  </g>
  <g
     id="layer102"
     transform="matrix(0.19493061,0,0,0.18694479,-37.448384,-39.25101)"
     style="fill:#6286be;stroke:none">
    <path
       d="m 13934,5447 c 30,-26 30,-29 -3,-82 -10,-16 -41,-68 -70,-114 -28,-47 -57,-92 -65,-100 -7,-9 -16,-25 -20,-36 -8,-25 -56,-82 -56,-66 0,7 -4,9 -10,6 -6,-4 -10,31 -10,98 l 0,104 -1717,-1 -1718,-1 0,-1785 0,-1785 700,-5 c 385,-3 691,-7 680,-8 -19,-3 -115,-138 -115,-162 0,-5 -4,-10 -10,-10 -5,0 -10,-7 -10,-15 0,-11 -12,-15 -42,-16 l -43,-1 40,-11 c 48,-12 2269,-22 2263,-10 -1,5 -66,67 -143,139 -513,481 -965,1017 -1390,1650 -139,205 -218,344 -266,459 -18,44 -35,83 -39,88 -3,4 -25,-128 -49,-292 -65,-465 -138,-794 -220,-1006 -89,-229 -246,-386 -432,-430 -35,-8 -87,-15 -115,-15 -116,0 -234,63 -275,146 -31,65 -22,121 44,290 81,204 124,392 287,1244 154,806 253,1148 369,1267 34,36 47,42 112,53 133,23 206,3 307,-82 109,-91 175,-215 218,-412 30,-135 60,-200 199,-431 426,-709 857,-1291 1444,-1949 102,-115 201,-226 219,-247 19,-22 38,-39 43,-39 6,0 8,659 7,1728 l -3,1727 -22,32 c -13,17 -23,36 -23,43 0,6 -4,9 -9,5 -5,-3 -12,-1 -16,4 -3,6 -20,20 -38,31 l -32,22 29,-25 z m -227,-1399 c -1,-101 -2,-19 -2,182 0,201 1,283 2,183 2,-101 2,-265 0,-365 z"
       id="path43"
       inkscape:connector-curvature="0" />
  </g>
  <g
     id="layer103"
     transform="matrix(0.19493061,0,0,0.18694479,-37.448384,-39.25101)"
     style="fill:#8195c6;stroke:none">
    <path
       d="m 10265,5248 c -3,-7 -4,-812 -3,-1788 l 3,-1775 968,-3 c 532,-1 967,-5 967,-8 0,-8 -26,-52 -83,-142 l -40,-62 -126,-2 c -123,-2 -124,-2 -41,-8 79,-5 81,-6 35,-11 -27,-3 363,-6 868,-7 l 917,-2 -304,302 c -372,371 -591,621 -878,999 -311,408 -541,764 -619,954 -18,44 -35,83 -39,88 -3,4 -25,-127 -48,-290 -99,-695 -197,-1044 -347,-1235 -167,-213 -450,-281 -627,-152 -96,71 -110,165 -47,315 98,233 135,387 309,1299 154,806 253,1148 369,1267 34,36 47,42 112,53 133,23 206,3 307,-82 109,-91 175,-215 218,-412 30,-135 60,-200 199,-431 351,-584 666,-1027 1121,-1575 191,-230 563,-648 586,-658 5,-2 7,648 6,1445 -1,796 -4,1410 -7,1363 -5,-68 -7,-46 -11,110 l -6,195 -2,-209 -2,-208 -30,-45 c -16,-24 -30,-46 -30,-48 0,-2 -17,-30 -38,-62 -56,-86 -62,-96 -68,-115 -4,-10 -10,-18 -15,-18 -5,0 -9,-7 -9,-15 0,-8 -4,-15 -10,-15 -5,0 -10,-7 -10,-15 0,-8 -4,-15 -10,-15 -5,0 -10,-4 -10,-9 0,-5 -16,-35 -35,-67 l -35,-58 -2,55 c -2,30 -5,-153 -8,-406 -4,-354 -6,-233 -8,526 l -2,986 -1715,2 c -1377,1 -1716,-1 -1720,-11 z"
       id="path46"
       inkscape:connector-curvature="0" />
  </g>
  <g
     id="layer104"
     style="fill:#a0cf68;fill-opacity:1;stroke:none"
     transform="matrix(0.19493061,0,0,0.18694479,-37.448384,-39.25101)">
    <path
       d="m 10265,5248 c -3,-7 -4,-812 -3,-1788 l 3,-1775 1609,-3 1609,-2 -184,188 c -414,422 -793,894 -1142,1424 -115,174 -184,297 -228,403 -18,44 -35,83 -39,88 -3,4 -25,-127 -48,-290 -99,-695 -197,-1044 -347,-1235 -167,-213 -450,-281 -627,-152 -103,76 -114,195 -32,356 70,138 125,375 294,1258 154,806 253,1148 369,1267 34,36 47,42 112,53 133,23 206,3 307,-82 109,-91 175,-215 218,-412 30,-135 60,-200 199,-431 285,-474 499,-788 820,-1200 227,-292 531,-655 548,-655 7,0 8,76 4,242 -4,133 -7,807 -7,1498 l 0,1257 -1715,2 c -1377,1 -1716,-1 -1720,-11 z"
       id="path49"
       style="fill:#a0cf68;fill-opacity:1"
       inkscape:connector-curvature="0" />
  </g>
  <ellipse
     style="opacity:1;fill:#026ab0;fill-opacity:1;fill-rule:nonzero;stroke:#000000;stroke-width:0;stroke-miterlimit:4;stroke-dasharray:none;stroke-opacity:1"
     id="path4494"
     cx="146.41457"
     cy="126.22119"
     ry="57.026302"
     rx="66.589218" />
</svg>
